<svg xmlns="http://www.w3.org/2000/svg" viewBox="0 0 512 512" role="img" aria-labelledby="mailIconTitle mailIconDescription">
  <title id="mailIconTitle">Wersee Mail</title>
  <desc id="mailIconDescription">A white envelope with a sparkle on a Wersee blue rounded square.</desc>
  <defs>
    <filter id="mailIconShadow" x="72" y="118" width="368" height="314" filterUnits="userSpaceOnUse" color-interpolation-filters="sRGB">
      <feDropShadow dx="0" dy="18" stdDeviation="18" flood-color="#073E8A" flood-opacity="0.25" />
    </filter>
  </defs>

  <rect x="20" y="20" width="472" height="472" rx="118" fill="#1769E0" />
  <rect x="31" y="31" width="450" height="450" rx="108" fill="none" stroke="#FFFFFF" stroke-opacity="0.2" stroke-width="2" />
  <path d="M80 111C111 58 171 35 234 34H375C424 34 462 64 479 105L80 111Z" fill="#FFFFFF" opacity="0.12" />

  <g filter="url(#mailIconShadow)">
    <rect x="101" y="149" width="310" height="230" rx="54" fill="#FFFFFF" />
    <path d="M112 184C112 165.222 127.222 150 146 150H366C384.778 150 400 165.222 400 184V190L276.89 286.54C264.641 296.148 247.359 296.148 235.11 286.54L112 190V184Z" fill="#F4F8FF" />
    <path d="M118 171L237.623 264.822C248.41 273.283 263.59 273.283 274.377 264.822L394 171" fill="none" stroke="#0B4DB0" stroke-width="22" stroke-linecap="round" stroke-linejoin="round" />
    <path d="M119 350L214 270" fill="none" stroke="#C8DAF6" stroke-width="15" stroke-linecap="round" />
    <path d="M393 350L298 270" fill="none" stroke="#C8DAF6" stroke-width="15" stroke-linecap="round" />
  </g>

  <circle cx="388" cy="126" r="52" fill="#0A458F" />
  <circle cx="388" cy="126" r="51" fill="none" stroke="#FFFFFF" stroke-opacity="0.28" stroke-width="2" />
  <path d="M388 86C390.64 108.52 401.48 119.36 424 122C401.48 124.64 390.64 135.48 388 158C385.36 135.48 374.52 124.64 352 122C374.52 119.36 385.36 108.52 388 86Z" fill="#FFFFFF" />
  <circle cx="420" cy="92" r="7" fill="#FFFFFF" fill-opacity="0.82" />
</svg>
